<?xml version="1.0" encoding="UTF-8"?>
<!DOCTYPE svg PUBLIC "-//W3C//DTD SVG 1.1//EN" "http://www.w3.org/Graphics/SVG/1.1/DTD/svg11.dtd">
<svg xmlns="http://www.w3.org/2000/svg" version="1.1" width="250px" height="325px" style="shape-rendering:geometricPrecision; text-rendering:geometricPrecision; image-rendering:optimizeQuality; fill-rule:evenodd; clip-rule:evenodd" xmlns:xlink="http://www.w3.org/1999/xlink">
<g><path style="opacity:1" fill="#e01d47" d="M 159.5,92.5 C 136.167,92.5 112.833,92.5 89.5,92.5C 89.5,69.1667 89.5,45.8333 89.5,22.5C 112.833,22.5 136.167,22.5 159.5,22.5C 159.5,45.8333 159.5,69.1667 159.5,92.5 Z"/></g>
<g><path style="opacity:1" fill="#e01d47" d="M 89.5,92.5 C 89.5,115.833 89.5,139.167 89.5,162.5C 112.833,162.5 136.167,162.5 159.5,162.5C 159.5,185.833 159.5,209.167 159.5,232.5C 136.167,232.5 112.833,232.5 89.5,232.5C 89.5,255.833 89.5,279.167 89.5,302.5C 66.1667,302.5 42.8333,302.5 19.5,302.5C 19.5,232.5 19.5,162.5 19.5,92.5C 42.8333,92.5 66.1667,92.5 89.5,92.5 Z"/></g>
<g><path style="opacity:1" fill="#e01d47" d="M 159.5,92.5 C 182.833,92.5 206.167,92.5 229.5,92.5C 229.5,115.833 229.5,139.167 229.5,162.5C 206.167,162.5 182.833,162.5 159.5,162.5C 159.5,139.167 159.5,115.833 159.5,92.5 Z"/></g>
<g><path style="opacity:1" fill="#e01d47" d="M 159.5,232.5 C 182.833,232.5 206.167,232.5 229.5,232.5C 229.5,255.833 229.5,279.167 229.5,302.5C 206.167,302.5 182.833,302.5 159.5,302.5C 159.5,279.167 159.5,255.833 159.5,232.5 Z"/></g>
</svg>
